<svg xmlns="http://www.w3.org/2000/svg" version="1.1" xmlns:xlink="http://www.w3.org/1999/xlink" xmlns:svgjs="http://svgjs.com/svgjs" width="1440" height="560" preserveAspectRatio="none" viewBox="0 0 1440 560"><g mask="url(&quot;#SvgjsMask1007&quot;)" fill="none"><rect width="1440" height="560" x="0" y="0" fill="rgba(88, 221, 144, 1)"></rect><path d="M 0,183 C 57.6,157 172.8,53.2 288,53 C 403.2,52.8 460.8,185.4 576,182 C 691.2,178.6 748.8,40.2 864,36 C 979.2,31.8 1036.8,162 1152,161 C 1267.2,160 1382.4,57 1440,31L1440 560L0 560z" fill="rgba(5, 56, 107, 1)"></path><path d="M 0,304 C 96,339.8 288,483.8 480,483 C 672,482.2 768,299.6 960,300 C 1152,300.4 1344,448 1440,485L1440 560L0 560z" fill="rgba(237, 245, 224, 1)"></path></g><defs><mask id="SvgjsMask1007"><rect width="1440" height="560" fill="#ffffff"></rect></mask></defs></svg>